<?xml version="1.0" encoding="utf-8"?>
<!DOCTYPE svg PUBLIC "-//W3C//DTD SVG 1.1//EN" "http://www.w3.org/Graphics/SVG/1.1/DTD/svg11.dtd">
      <svg xmlns="http://www.w3.org/2000/svg" viewBox="0 0 630 630" class="svg-logo flex items-start justify-start"
        style="height: auto" width="50" height="50">
        <path id="color_x5F_3_16_" fill="#7ea1bf"
          d="M512.217,458.955c1.156-1.003,2.271-2.026,3.345-3.07    C514.544,456.95,513.429,457.971,512.217,458.955z M535.829,198.59c0.362-6.972,0.899-14.378,0.976-21.968    c-1.194,6.592-2.486,13.12-1.917,17.233C535.107,195.443,535.44,197.022,535.829,198.59z M572.85,297.638    c0-20.66-2.304-40.788-6.641-60.158c0,0-16.276,17.605-31.877,10.671c-10.959-4.871-19.134-12.403-22.65-15.999    c-9.524-3.04-23.03-11.349-25.355-26.649c-25.19-0.331-29.776-15.861-31.139-19.272c-22.004,6.757-38.162-7.004-39.025-7.263    c-13.081,7.569-27.35,1.714-30.369-0.336c-7.08,11.489-24.472,13.503-29.48,12.595c-1.252,23.263-25.996,26.936-29.188,27.218    c0.708,1.167,8.192,13.246,11.452,13.246c18.32,0,36.496,20.7,43.939,30.299c12.112-1.952,38.021-5.58,52.202-3.502    c9.488-4.909,39.614-18.537,64.824-8.501c12.747,5.075,19.37,24.739,42.46,34.213c18.759,7.696,19.646,43.145,19.26,47.503    c2.301,7.152,4.406,17.994,3.444,32.446C570.015,342.841,572.85,320.566,572.85,297.638z M405.601,533.062    c-6.688-6.687-5.488-14.178-3.03-19.964c-61.579,19.803-111.448,4.102-138.5-4.053c-13.412-4.044-21.704,9.482-21.704,9.482    c4.296,5.266,22.702,36.218,18.945,41.73c-3.159,4.637-13.763,7.411-13.931,7.943c16.302,3.026,33.091,4.649,50.257,4.649    c49.871,0,96.686-13.336,137.068-36.626c-1.904-0.642-3.67-1.576-5.235-2.642C419.283,536.826,409.536,536.998,405.601,533.062z     M169.354,80.127c1.227-9.171,13.038-31.761,14.411-33.018C88.676,90.502,22.425,186.476,22.425,297.638    c0,107.368,61.808,200.563,151.706,245.9c1.425-2.078,2.982-4.231,4.49-6.526c-1.005-2.387-2.976-5.986-6.673-9.684    c-8.777-8.775-10.667-30.105-11.037-41.349c-61.729-39.091-79.582-109.54-73.996-157.898c-9.987,4.479-23.553-3.705-28.688-8.476    c-5.906,2.084-16.095,4.943-21.748-2.358c-5.899-7.622-4.356-16.661-2.847-20.076c-1.296,3.017-8.787-6.659-9.703-15.408    c-0.466-4.45,3.37-8.138,6.649-11.044c-3.892-5.337-5.462-11.888-2.153-18.505c2.026-4.052,6.742-9.071,17.707-9.98    c5.383-0.447,11.135-2.37,16.64-6.371c6.988-5.078,16.339-1.796,17.667-1.134c12.478-23.148,34.482-39.53,64.318-47.707    c6.479-1.775,12.736-3.002,18.48-3.848c-8.567-12.556-14.664-30.76-4.895-49.475C153.161,120.35,150.748,97.247,169.354,80.127z     M563.683,227.14c-3.728-14.052-8.54-27.665-14.345-40.747C547.576,219.318,563.683,227.14,563.683,227.14z M479.513,504    c7.255-6.401,14.173-13.174,20.719-20.296c-7.453,2.163-16.285,3.835-26.89,4.982C473.703,489.187,479.784,497.825,479.513,504z     M487.18,371.637c-11.87-2.949-24.683-2.324-37.035-0.138c-9.583,1.696,15.726,12.188,17.637,28.433    c-33.447-24.846-68.654-13.291-74.734-12.712c27.235,4.301,50.059,54.847,97.842,40.341    C525.402,417.083,496.784,374.022,487.18,371.637z">
        </path>
        <path id="color_x5F_2_12_" fill="#eda93a"
          d="M547.688,359.032c-4.092,3.58-9.001,6.502-14.607,8.709    c-7.439,106.202-87.695,82.962-116.561,47.974c-27.057-32.795-68.626-26.345-69.343-29.929c-0.717-3.583,22.113-1.198,47.143-8.023    c8.109-2.212,16.25-5.621,24.867-9.231c19.9-8.334,42.453-17.784,70.343-13.934c21.407,2.948,38.308-2.006,48.285-9.869    c17.929-14.13,0.946-41.784-17.907-52.833c-13.382-7.843-16.398-15.679-20.44-20.935c-2.57,6.134-11.518,10.655-18.443,1.376    c-2.341-3.134-3.011-6.158-2.641-8.779c-18.732,0.388-37.713,11.253-37.955,11.394c-30.344-4.099-42.742,2.772-62.341,5.242    c0,0,2.161,11.542-5.329,13.273c-10.813-1.044-16.416-14.065-7.685-16.182c-9.783-1.314-23.404-1.263-34.829,5.729    c3.64-0.918,7.509-0.235,10.619,3.22c8.188,8.458-3.645,18.679-12.676,17.528c-8.376-1.067-10.512-5.508-9.28-10.044    c-1.931,2.743-3.661,5.893-5.128,9.516c-1.398,3.454-9.294,13.763-18.51,26.649c24.879-1.424,5.648,41.028-8.422,46.52    c-9.888,3.858-11.417-8.407-8.567-21.306c-5.998,9.707-11.119,26.506-9.156,26.021c9.918-2.449,10.268,8.386,10.896,15.17    c1.388,14.971-13.211,8.361-18.448-0.519c-3.053,33.87,28.033,54.116,25.562,57.416c-2.601,3.472-50.512-19.247-41.658-66.202    c-8.692,5.95-19.481,7.429-28.286-0.533c-24.633-22.271,15.294-60.844,36.778-42.436c2.829,2.425,4.744,5.219,5.889,8.214    c2.066-3.609,4.249-7.216,6.488-10.764c-18.611-0.967-21.794-40.832,1.323-49.25c16.397-5.971,30.25,4.277,30.725,3.325    c9.895-19.792,31.687-35.827,58.475-36.259c-41.944-29.024-115.048-3.127-116.074-5.319c-2.456-5.095,34.71-22.271,74.078-20.542    c-0.324-1.005-22.167-36.132-76.681-51.945c-4.414-1.28,16.125-4.298,46.772,5.903c-3.917-7.709-5.899-17.19-5.623-23.404    c1.463-32.821,36.132-9.329,37.214,12.335c0.367,7.362-1.672,16.743-7.222,21.298c2.388,1.214,4.799,2.489,7.243,3.868    c0.306,0.172,24.15-0.603,19.059-25.534c-5.659-28.106-55.717-69.329-54.399-71.821c3.699-7.21,36.821,23.302,55.621,46.641    c-0.514-3.731-0.983-6.774-1.706-7.995c-7.117-12.025,12.13-4.024,16.125,2.028c4.038,6.118,9.386,18.018,3.248,24.33    c-0.812,0.834-1.581,1.546-2.314,2.151c3.851,2.775,7.026,5.292,11.891,2.856c9.84-4.926,10.37-26.834,9.83-26.403    c-10.656,8.521-22.178-3.286-18.786-12.005c1.123-2.889-15.651-32.19-0.503-26.241c3.906,1.534,9.301,4.996,14.053,9.401    c-7.161-20.09-17.191-37.863-16.576-38.763c3.464-5.026,30.773,39.112,33.625,50.448c0.809-4.15,2.101-46.012,4.486-46.531    c7.281-1.636,5.688,37.921,3.029,61.185c4.083-6.707,9.282-12.263,12.503-12.316c10.804-0.178,8.134,19.893,0.438,30.74    c6.155-0.924,12.567-4.588,16.052-14.268c1.596-4.434,7.294-43.47,9.571-43.839c8.024-1.356,4.616,37.72,3.912,41.301    c-0.489,2.485-3.958,12.319-2.339,18.299c1.426-2.366,3.473-4.566,5.91-6.04c7.973-4.817,12.115,4.389,9.325,11.311    c3.792-0.276,7.695-1.021,11.232-2.175c13.458-7.498,17.116-49.5,19.606-49.833c8.99-1.269,2.189,37.881,0.986,41.507    c-1.19,3.592-14.622,17.6-4.62,25.47c5.71-7.728,22.346-12.494,21.549-1.563c9.554-7.503,15.681-19.897,16.226-10.064    c0.476,8.283-3.106,16.609-8.337,23.089c0.614,5.255,1.856,11.731,4.361,15.74c10.273,1.194,13.468-26.943,18.491-15.724    c2.616,5.786,1.748,13.698-1.329,19.632c2.354,4.854,6.935,12.411,13.762,15.599c-5.428-8.297-5.427-20.087-4.729-33.495    c-0.389-1.568-0.722-3.147-0.941-4.735c-0.569-4.113,0.723-10.642,1.917-17.233c0.006-0.581,0.021-1.158,0.021-1.741    c0-3.947-5.344-7.631-6.334-10.234c-4.855,6.534-15.504,8.615-18.197-1.78c-1.151-4.447,1.18-8.891,4.652-11.755    c-2.937-2.089-5.082-4.345-4.924-8.295c-0.297-10.102-3.736-17.967-8.334-24.014c-1.146,5.359-3.938,9.387-8.747,9.387    c-7.39,0-11.21-13.743-9.955-24.282c-4.294-2.097-7.362-2.963-7.362-2.963s-2.696-8.887-6.112-16.469    c-5.202-4.251-10.563-8.313-16.07-12.182c3.546,10.771,1.354,26.014-10.225,24.448c-9.218-1.247-10.128-16.26-6.859-26.1    c0.031-2.298-0.133-6.193-1.236-10.159c-2.801-1.654-5.623-3.275-8.486-4.831c0.442,5.311-0.349,10.545-3.158,12.904    c-4.304,3.613-13.853,4.066-11.975-5.048c0.954-4.629-2.38-8.956-4.681-13.144c-6.583,3.522-11.49,8.567-14.175,8.191    c-3.771-9.398-8.535-15.578-13.649-19.608c-1.793,16.981-11.662,3.3-13.769-4.063c-0.248-0.864-11.152-3.128-15.366-2.745    c0.271,1.087,0.172,27.457-6.623,14.543c-3.6-6.839-4.938-13.921-10.528-19.39c-21.504-11.523-45.849-3.403-47.64-2.63    c3.536,3.346,17.101,32.865,12.023,29.472c-5.077-3.393-20.247-24.081-30.944-27.982c-1.495-0.669-8.479-1.02-8.436-0.984    c5.559,4.512,13.04,17.075,1.795,19.523c-6.323,1.376-10.181-10.532-18.818-8.1c-4.808,1.353-7.098-1.548-7.175-5.323    c-3.029,2.786-4.949,5.464-5.693,6.501c3.929,1.083,56.371,19.417,49.184,27.184c-29.307-13.875-68.01-23.193-85.835-2.888    c-4.694,5.347-5.424,10.297-5.614,13.862c5.143-0.586,40.64-0.48,65.009,13.853c-12.91-2.245-26.4-2.361-38.074-1.678    c1.982,1.441,4.024,3.422,6.181,6.085c7.501,9.267,10.683,25.275-3.998,28.346c-4.114,0.861-14.223-6.131-17.95-7.311    c-7.987-2.529-16.281-1.319-23.8-5.489c-0.707,5.943-0.118,11.729,0.729,16.23c12.212-2.219,25.396-2.281,37.253,1.579    c20.462,6.654-29.863,3.092-38.251,12.958c-4.621,5.435-6.247,12.21-4.022,20.001c1.428-8.421,19.752-14.231,29.728-11.68    c17.367,4.443-4.788,32.815-21.841,22.597c-2.017-1.208,1.042,5.251,5.717,9.999c3.066-0.059,9.748,4.955,14.163,9.09    c15.445,7.573,8.574,28.636-13.196,20.23c-8.438-3.258-12.759-7.914-13.545-12.171c-9.309,1.234-19.605,3.173-29.761,6.397    c-2.458,9.461-21.325,26.513-26.664,29.956c-8.575,5.532-8.895-4.179-7.484-11.638c-4.423,3.892-8.397,8.375-11.754,13.531    c4.771-1.646,9.502,0.85,10.841,11.18c0.139,1.072-3.017,12.682-3.379,13.576c-1.336,3.296-15.913,1.406-17.098-0.463    c-0.452,2.321-0.822,4.719-1.084,7.214c-0.317,3.011-10.934-19.426-10.934-19.426c-0.897-1.398-29.625,7.645-30.264,11.158    c-0.639,3.512,19.356,12.563,19.356,12.563s-18.717,3.992-18.854,9.112c-0.137,5.12,12.21,11.682,12.21,11.682    c-3.096,3.395-11.118,7.089-7.483,10.726c3.634,3.637,13.83-6.712,13.83-6.712l4.583,7.025c1.417,2.086,9.579,12.436,25.675,2.971    c18.417-10.833,23.473-39.89,28.398-39.386c3.627,0.371,4.102,20.451-3.967,36.821c5.625-5.943,13.752-7.091,14.699,4.013    c1.241,14.545-11.901,36.082-19.354,13.45c-1.129-3.43-0.884-6.936,0.194-10.109c-2.184,2.933-4.736,5.575-7.721,7.724    c-4.764,22.159-1.162,49.238,5.621,75.006c9.604,36.493,40.358,62.774,56.557,74.479c5.907-28.439,28.322-42.672,27.22-40.079    c-6.729,15.845-10.208,31.733-11.832,45.466c2.33-2.144,5.617-3.51,10.062-3.541c13.887-0.098,6.327,19.156,1.277,26.445    c-4.708,6.796-9.417,5.786-12.501,1.537c0.261,9.251,1.341,15.204,2.062,15.925c10.253,10.253,13.022,25.382,13.022,25.382    s-15.368,15.779-12.893,17.491c2.477,1.712,10.687-7.141,10.687-7.141s5.559,14.785,9.227,14.18    c3.668-0.606,8.075-13.35,8.075-13.35s15.014,13.478,18.967,10.392c3.953-3.087-1.424-16.2-1.424-16.2s12.761,6.385,14.291,3.157    s-25.42-21.141-24.354-30.778s23.302-31.933,49.455-25.683c22.676,5.419,57.199,16.925,100.19,10.609    c-6.699-0.986-44.857-14.541-42.693-18.411c0.764-1.417,50.617,14.214,83.109,3.247c-6.234-3.516-40.691-16.698-39.659-18.419    c1.433-2.389,81.076,21.071,136.946-7.086c1.921-1.146,3.614-2.347,5.158-3.602c1.156-1.003,2.271-2.026,3.345-3.07    c6.485-6.787,9.376-15.323,12.959-27.166C530.612,421.805,550.01,384.353,547.688,359.032z M531.715,318.729    c7.544,0.402-2.471,18.593-6.967,15.402C522.787,332.748,525.895,318.418,531.715,318.729z M307.965,264.215    c4.117,26.927-41.771,17.283-40.809-2.307C268.195,240.745,305.252,246.476,307.965,264.215z M250.477,271.144    c6.447-8.346,19.504,0.178,15.442,9.449C261.105,291.577,242.32,281.701,250.477,271.144z M527.446,173.517    c9.158,4.838-1.561,25.928-11.22,20.329C506.984,188.487,517.432,168.226,527.446,173.517z M499.261,142.994    c8.22,4.806,0.976,18.865-1.022,24.879c-5.196,15.648-20.241-0.664-14.061-14.725C486.898,146.96,490.408,137.818,499.261,142.994z     M454.049,97.213c16.293-8.196,17.439,14.49,4.457,15.838C448.827,114.056,444.503,102.013,454.049,97.213z M452.83,121.928    c16.047-8.276,15.033,20.234,6.013,27.598C442.088,163.201,440.06,128.514,452.83,121.928z M409.803,80.889    c11.879-1.588,21.824,44.642,0.473,41.755C396.389,120.766,400.453,82.14,409.803,80.889z M358.163,60.596    c10.004-18.107,27.938,9.293,23.815,23.493C375.699,105.714,352.423,70.987,358.163,60.596z M336.818,117.344    c-23.298,22.218-39.969-35.791-29.938-44.727C328.218,53.611,356.188,98.872,336.818,117.344z M313.086,23.43    c8.813,0.496,18.697,11.975,19.533,20.366c1.239,12.458-9.621,19.613-18.532,10.067c-3.542-3.795-1.41-9-3.919-13.242    C305.582,32.868,295.076,22.418,313.086,23.43z M221.533,74.285c-10.813,1.679-7.507-10.771-2.605-14.399    c4.738-3.506,17.96-2.531,22.639,0.612C263.966,75.546,232.485,77.287,221.533,74.285z M76.654,287.037    c-8.817-4.356-0.808-18.177,7.578-15.463C95.376,275.181,85.865,291.589,76.654,287.037z M92.292,293.534    c-8.153-10.391,14.377-24.947,16.055-15.672C109.914,286.531,103.522,307.847,92.292,293.534z M123.578,262.286    c-6.52,13.114-16.934-3.088-14.563-11.654c2.41-8.705,12.612-16.959,18.278-7.518C129.085,246.101,125.032,259.362,123.578,262.286z     M236.827,304.588c-4.513,17.223-14.061,23.315-32.712,19.355c-38.672-8.211,8.083-57.043,29.458-49.892    C246.095,278.24,239.463,294.526,236.827,304.588z M232.18,236.207c11.091,5.837-8.586,23.817-17.472,12.402    C204.47,235.455,228.486,221.43,232.18,236.207z M271.084,216.641c4.513,15.309-53.076,26.385-48.308-1.728    C226.325,193.989,265.745,198.529,271.084,216.641z M262.579,85.615c3.688-9.17,24.748-7.075,26.563,3.32    C292.63,108.895,257.511,98.215,262.579,85.615z M270.313,108.842c5.612,6.849,12.832,23.617-0.704,26.119    c-8.972,1.657-19.875-13.588-24.18-19.714C230.263,101.205,258.913,94.93,270.313,108.842z M221.103,137.879    c16.186-23.097,68.523,16.792,43.516,28.991C256.019,171.064,211.148,152.084,221.103,137.879z M213.188,173.877    c15.917-0.25,18.249,25.744,2.802,20.32C204.042,190.001,197.971,174.116,213.188,173.877z M204.554,219.873    c5.62,5.484,2.102,13.064-6.347,15.181C178.304,240.039,188.885,204.583,204.554,219.873z M174.298,248.367    c6.282-5.003,21.805-9.176,28.6-3.237c10.965,9.583-2.398,22.327-8.759,29.647C176.855,294.668,153.843,264.659,174.298,248.367z     M137.927,231.691c15.765-20.275,41.181-11.252,21.358,12.227c-4.416,5.231-15.549,18.995-23.707,11.823    C129.166,250.104,134.134,236.57,137.927,231.691z M131.182,285.55c0.531-9.357,14.054-27.886,22.37-15.903    C162.673,282.792,130.079,304.981,131.182,285.55z M136.717,347.087c21.063-22.369,14.145,10.928,7.927,24.147    C138.402,384.504,123.147,361.498,136.717,347.087z M158.581,382.064c-0.929,6.494-1.082,32.282-15.292,15.965    C130.73,383.609,160.577,368.104,158.581,382.064z M142.535,307.102c1.899-4.973,12.416-21.062,20.364-18.948    c9.397,2.5,3.273,10.821,3.559,17.856C167.628,334.822,132.597,333.123,142.535,307.102z M169.586,339.567    c-10.416-7.566,1.462-22.433,11.738-18.425c8.736,1.889,6.286,13.639-0.131,18.448c3.122-1.785,6.446-2.658,9.802-2.247    c17.174,2.104,10.395,59.434-14.654,53.909c-22.372-4.935-12.79-39.659,3.281-50.661    C176.697,342.105,173.177,342.176,169.586,339.567z M190.957,423.948c-19.004,20.69-36.005-0.518-17.625-17.987    C188.816,391.244,206.229,407.32,190.957,423.948z M193.545,522.511c-8.229-5.612,0.748-25.223,9.613-16.358    C209.776,512.771,203.278,529.149,193.545,522.511z M193.415,459.963c-8.626-11.096,12.164-18.986,15.772-7.833    C212.085,461.083,198.517,466.525,193.415,459.963z M226.816,494.572c-17.202,13.899-24.534-9.377-11.801-21.178    C221.376,455.766,244.49,480.292,226.816,494.572z M223.005,443.201c8.892,0.031,11.069,17.974,0.693,18.006    C213.208,462.381,212.396,443.164,223.005,443.201z M220.029,436.957c-19.449-6.46-8.711-47.475,3.248-35.519    C231.541,409.7,243.948,444.9,220.029,436.957z M246.835,482.017c-9.636-0.001-9.294-15.532,0-15.532    C256.627,466.484,255.844,482.018,246.835,482.017z M248.564,462.856c-10.544-3.841-15.777-31.648,1.508-28.468    C267.643,437.623,266.69,469.459,248.564,462.856z M414.535,338.085c-11.421-6.36-3.418-21.007,8.212-18.701    C437.031,322.934,427.465,345.286,414.535,338.085z M504.697,342.151c-2.122,1.12-24.854-7.029-19.91-10.119    C496.255,324.865,509.58,339.591,504.697,342.151z M474.328,288.941c3.072-4.164,11.578-2.108,15.733,0.357    c9.641,5.719,5.333,21.029-6.063,20.036C477.047,308.729,470.023,294.774,474.328,288.941z M454.791,321.56    c-8.994-8.273,0.716-26.417,12.214-16.658C477.614,313.906,466.295,332.142,454.791,321.56z M443.261,275.4    c9.218-8.964,30.082,3.701,18.36,15.071C450.779,300.989,431.619,286.721,443.261,275.4z M414.081,281.08    c20.175-2.397,35.978,30.457,10.987,30.873C410.104,312.202,391.283,283.789,414.081,281.08z M391.252,294.442    c1.588,0.881,2.784,1.152,4.45,1.69c12.888,4.164-0.359,22.516-10.69,10.861C378.882,300.078,383.198,289.972,391.252,294.442z     M280.302,436.39c-5.878-8.218-3.912-32.264,11.213-20.082C307.336,429.051,294.082,455.656,280.302,436.39z M309.882,413.596    c-18.658,7.37-24.463-35.157-3.645-35.157C319.561,378.438,320.044,409.581,309.882,413.596z M318.628,329.448    c15.154-41.614,77.286-28.952,77.286,25.609C395.914,378.093,303.474,371.063,318.628,329.448z M460.893,500.955    c-0.951,2.135-11.471,1.188-11.471,1.188s5.416,6.991,2.712,9.941s-10.247-3.214-10.247-3.214s1.321,8.883-3.213,10.151    c-4.535,1.269-7.206-8.237-7.206-8.237s-9.588,11.859-13.492,9.967c-3.904-1.894,6.87-12.1,7.264-16.387    c8.478-3.813,17.14-8.334,25.949-13.651C453.397,492.042,461.843,498.819,460.893,500.955z M368.324,342.799    c-5.575,2.044-11.861-1.121-14.04-7.067c-2.18-5.946,0.573-12.424,6.147-14.467c5.575-2.043,11.861,1.121,14.041,7.068    C376.651,334.279,373.899,340.756,368.324,342.799z">
        </path>
        <path id="color_x5F_1_15_" fill="#431502"
          d="M438.542,35.527c-2.132-1.603-8.007-4.245-8.528-4.413    C390.117,11.217,345.166,0,297.638,0C133.519,0,0,133.52,0,297.638c0,164.118,133.52,297.637,297.638,297.637    c164.117,0,297.638-133.52,297.638-297.637C595.275,184.464,531.777,85.85,438.542,35.527z M549.338,186.393    c5.805,13.082,10.617,26.694,14.345,40.747C563.683,227.14,547.576,219.318,549.338,186.393z M174.131,543.538    c-89.898-45.337-151.706-138.532-151.706-245.9c0-111.163,66.251-207.136,161.339-250.528c-1.373,1.256-13.184,23.846-14.411,33.018    c-18.605,17.12-16.192,40.222-11.01,53.571c-9.769,18.715-3.672,36.919,4.895,49.475c-5.745,0.846-12.001,2.073-18.48,3.848    c-29.836,8.177-51.84,24.559-64.318,47.707c-1.328-0.662-10.679-3.944-17.667,1.134c-5.505,4-11.257,5.923-16.64,6.371    c-10.965,0.909-15.681,5.928-17.707,9.98c-3.309,6.618-1.739,13.168,2.153,18.505c-3.279,2.907-7.115,6.595-6.649,11.044    c0.916,8.749,8.407,18.425,9.703,15.408c-1.509,3.415-3.053,12.454,2.847,20.076c5.652,7.302,15.842,4.442,21.748,2.358    c5.135,4.771,18.701,12.955,28.688,8.476c-5.586,48.358,12.268,118.808,73.996,157.898c0.37,11.243,2.26,32.573,11.037,41.349    c3.697,3.697,5.667,7.297,6.673,9.684C177.113,539.307,175.556,541.46,174.131,543.538z M297.638,572.851    c-17.167,0-33.955-1.623-50.257-4.649c0.167-0.532,10.771-3.307,13.931-7.943c3.757-5.513-14.649-36.465-18.945-41.73    c0,0,8.292-13.526,21.704-9.482c27.052,8.154,76.921,23.855,138.5,4.053c-2.458,5.786-3.658,13.277,3.03,19.964    c3.936,3.937,13.683,3.765,23.87,0.521c1.565,1.065,3.331,2,5.235,2.642C394.323,559.515,347.509,572.851,297.638,572.851z     M460.893,500.955c-0.951,2.135-11.471,1.188-11.471,1.188s5.416,6.991,2.712,9.941s-10.247-3.214-10.247-3.214    s1.321,8.883-3.213,10.151c-4.535,1.269-7.206-8.237-7.206-8.237s-9.588,11.859-13.492,9.967c-3.904-1.894,6.87-12.1,7.264-16.387    c8.478-3.813,17.14-8.334,25.949-13.651C453.397,492.042,461.843,498.819,460.893,500.955z M479.513,504    c0.271-6.175-5.81-14.813-6.171-15.313c10.604-1.147,19.437-2.819,26.89-4.982C493.686,490.826,486.768,497.599,479.513,504z     M528.521,428.719c-3.583,11.843-6.474,20.379-12.959,27.166c-1.018,1.065-2.133,2.086-3.345,3.07    c-1.544,1.255-3.237,2.456-5.158,3.602c-55.87,28.157-135.514,4.697-136.946,7.086c-1.032,1.721,33.425,14.903,39.659,18.419    c-32.492,10.967-82.346-4.664-83.109-3.247c-2.164,3.87,35.994,17.425,42.693,18.411c-42.991,6.315-77.514-5.19-100.19-10.609    c-26.152-6.25-48.388,16.045-49.455,25.683s25.883,27.551,24.354,30.778s-14.291-3.157-14.291-3.157s5.376,13.113,1.424,16.2    c-3.953,3.086-18.967-10.392-18.967-10.392s-4.407,12.743-8.075,13.35c-3.668,0.605-9.227-14.18-9.227-14.18    s-8.21,8.853-10.687,7.141c-2.476-1.712,12.893-17.491,12.893-17.491s-2.769-15.129-13.022-25.382    c-0.721-0.721-1.801-6.674-2.062-15.925c3.083,4.249,7.792,5.259,12.501-1.537c5.049-7.289,12.609-26.543-1.277-26.445    c-4.445,0.031-7.732,1.397-10.062,3.541c1.623-13.732,5.102-29.621,11.832-45.466c1.102-2.593-21.313,11.64-27.22,40.079    c-16.199-11.704-46.952-37.985-56.557-74.479c-6.782-25.768-10.385-52.847-5.621-75.006c2.985-2.148,5.537-4.791,7.721-7.724    c-1.078,3.174-1.324,6.68-0.194,10.109c7.453,22.632,20.595,1.095,19.354-13.45c-0.947-11.104-9.074-9.956-14.699-4.013    c8.069-16.37,7.595-36.45,3.967-36.821c-4.925-0.504-9.98,28.553-28.398,39.386c-16.096,9.465-24.258-0.885-25.675-2.971    l-4.583-7.025c0,0-10.195,10.349-13.83,6.712c-3.635-3.637,4.388-7.331,7.483-10.726c0,0-12.347-6.562-12.21-11.682    c0.136-5.12,18.854-9.112,18.854-9.112s-19.995-9.051-19.356-12.563c0.639-3.513,29.366-12.556,30.264-11.158    c0,0,10.617,22.437,10.934,19.426c0.262-2.495,0.632-4.893,1.084-7.214c1.186,1.869,15.762,3.759,17.098,0.463    c0.363-0.894,3.518-12.504,3.379-13.576c-1.338-10.33-6.07-12.825-10.841-11.18c3.356-5.156,7.331-9.639,11.754-13.531    c-1.411,7.459-1.091,17.169,7.484,11.638c5.339-3.443,24.206-20.495,26.664-29.956c10.156-3.224,20.452-5.163,29.761-6.397    c0.786,4.258,5.107,8.914,13.545,12.171c21.77,8.406,28.641-12.658,13.196-20.23c-4.415-4.135-11.096-9.149-14.163-9.09    c-4.674-4.747-7.733-11.207-5.717-9.999c17.053,10.219,39.208-18.154,21.841-22.597c-9.975-2.551-28.299,3.259-29.728,11.68    c-2.225-7.791-0.598-14.566,4.022-20.001c8.388-9.866,58.713-6.305,38.251-12.958c-11.856-3.86-25.041-3.797-37.253-1.579    c-0.846-4.501-1.436-10.287-0.729-16.23c7.52,4.169,15.813,2.959,23.8,5.489c3.727,1.18,13.835,8.172,17.95,7.311    c14.681-3.071,11.499-19.079,3.998-28.346c-2.156-2.664-4.198-4.644-6.181-6.085c11.674-0.683,25.164-0.567,38.074,1.678    C228.2,75.445,192.703,75.339,187.56,75.925c0.189-3.565,0.92-8.515,5.614-13.862c17.825-20.305,56.528-10.987,85.835,2.888    c7.188-7.767-45.254-26.101-49.184-27.184c0.744-1.037,2.664-3.715,5.693-6.501c0.078,3.775,2.368,6.676,7.175,5.323    c8.638-2.432,12.495,9.477,18.818,8.1c11.244-2.448,3.764-15.011-1.795-19.523c-0.043-0.036,6.941,0.314,8.436,0.984    c10.697,3.901,25.867,24.589,30.944,27.982c5.077,3.394-8.487-26.125-12.023-29.472c1.791-0.773,26.136-8.894,47.64,2.63    c5.591,5.469,6.929,12.551,10.528,19.39c6.795,12.914,6.895-13.456,6.623-14.543c4.214-0.383,15.118,1.88,15.366,2.745    c2.106,7.363,11.976,21.044,13.769,4.063c5.114,4.03,9.879,10.209,13.649,19.608c2.685,0.375,7.592-4.669,14.175-8.191    c2.301,4.188,5.635,8.515,4.681,13.144c-1.878,9.114,7.671,8.662,11.975,5.048c2.81-2.359,3.601-7.594,3.158-12.904    c2.863,1.556,5.686,3.177,8.486,4.831c1.104,3.966,1.268,7.861,1.236,10.159c-3.269,9.84-2.358,24.853,6.859,26.1    c11.579,1.566,13.771-13.677,10.225-24.448c5.508,3.869,10.868,7.931,16.07,12.182c3.416,7.582,6.112,16.469,6.112,16.469    s3.068,0.867,7.362,2.963c-1.255,10.539,2.565,24.282,9.955,24.282c4.81,0,7.601-4.028,8.747-9.387    c4.598,6.047,8.037,13.912,8.334,24.014c-0.158,3.95,1.987,6.206,4.924,8.295c-3.473,2.864-5.804,7.308-4.652,11.755    c2.693,10.395,13.342,8.314,18.197,1.78c0.99,2.603,6.334,6.287,6.334,10.234c0,0.583-0.016,1.16-0.021,1.741    c-0.076,7.59-0.613,14.997-0.976,21.968c-0.698,13.408-0.699,25.198,4.729,33.495c-6.827-3.188-11.407-10.746-13.762-15.599    c3.077-5.934,3.945-13.847,1.329-19.632c-5.023-11.219-8.218,16.918-18.491,15.724c-2.505-4.009-3.747-10.484-4.361-15.74    c5.23-6.48,8.813-14.807,8.337-23.089c-0.545-9.833-6.672,2.561-16.226,10.064c0.797-10.931-15.839-6.164-21.549,1.563    c-10.002-7.87,3.43-21.878,4.62-25.47c1.203-3.626,8.004-42.776-0.986-41.507c-2.49,0.333-6.148,42.335-19.606,49.833    c-3.537,1.154-7.44,1.899-11.232,2.175c2.79-6.921-1.353-16.128-9.325-11.311c-2.438,1.474-4.484,3.674-5.91,6.04    c-1.619-5.98,1.85-15.814,2.339-18.299c0.704-3.581,4.112-42.657-3.912-41.301c-2.277,0.369-7.976,39.405-9.571,43.839    c-3.484,9.68-9.896,13.344-16.052,14.268c7.696-10.847,10.366-30.918-0.438-30.74c-3.221,0.053-8.42,5.609-12.503,12.316    c2.658-23.264,4.252-62.821-3.029-61.185c-2.386,0.52-3.678,42.381-4.486,46.531c-2.852-11.335-30.161-55.474-33.625-50.448    c-0.615,0.899,9.415,18.673,16.576,38.763c-4.752-4.406-10.146-7.867-14.053-9.401c-15.148-5.949,1.626,23.353,0.503,26.241    c-3.392,8.72,8.13,20.526,18.786,12.005c0.54-0.432,0.01,21.477-9.83,26.403c-4.864,2.436-8.04-0.081-11.891-2.856    c0.733-0.605,1.503-1.316,2.314-2.151c6.138-6.312,0.79-18.212-3.248-24.33c-3.995-6.052-23.242-14.053-16.125-2.028    c0.723,1.221,1.192,4.264,1.706,7.995c-18.8-23.339-51.922-53.851-55.621-46.641c-1.318,2.492,48.74,43.715,54.399,71.821    c5.092,24.931-18.753,25.707-19.059,25.534c-2.444-1.379-4.855-2.654-7.243-3.868c5.55-4.556,7.589-13.937,7.222-21.298    c-1.082-21.664-35.751-45.156-37.214-12.335c-0.277,6.214,1.706,15.695,5.623,23.404c-30.647-10.201-51.186-7.183-46.772-5.903    c54.515,15.813,76.357,50.94,76.681,51.945c-39.368-1.729-76.534,15.447-74.078,20.542c1.026,2.192,74.13-23.705,116.074,5.319    c-26.788,0.433-48.58,16.468-58.475,36.259c-0.476,0.952-14.328-9.296-30.725-3.325c-23.118,8.418-19.935,48.284-1.323,49.25    c-2.239,3.548-4.422,7.154-6.488,10.764c-1.145-2.995-3.06-5.789-5.889-8.214c-21.484-18.408-61.411,20.164-36.778,42.436    c8.805,7.962,19.594,6.483,28.286,0.533c-8.854,46.955,39.057,69.674,41.658,66.202c2.472-3.3-28.614-23.546-25.562-57.416    c5.237,8.88,19.836,15.489,18.448,0.519c-0.628-6.784-0.979-17.619-10.896-15.17c-1.962,0.484,3.158-16.314,9.156-26.021    c-2.85,12.898-1.321,25.164,8.567,21.306c14.071-5.491,33.301-47.943,8.422-46.52c9.216-12.887,17.111-23.195,18.51-26.649    c1.467-3.623,3.197-6.772,5.128-9.516c-1.231,4.536,0.904,8.977,9.28,10.044c9.031,1.15,20.864-9.071,12.676-17.528    c-3.11-3.455-6.979-4.138-10.619-3.22c11.425-6.992,25.046-7.042,34.829-5.729c-8.731,2.116-3.128,15.137,7.685,16.182    c7.49-1.732,5.329-13.273,5.329-13.273c19.599-2.47,31.997-9.341,62.341-5.242c0.242-0.14,19.223-11.005,37.955-11.394    c-0.37,2.621,0.3,5.645,2.641,8.779c6.926,9.279,15.873,4.757,18.443-1.376c4.042,5.256,7.059,13.092,20.44,20.935    c18.854,11.049,35.836,38.703,17.907,52.833c-9.978,7.863-26.878,12.817-48.285,9.869c-27.89-3.851-50.442,5.6-70.343,13.934    c-8.617,3.61-16.758,7.02-24.867,9.231c-25.029,6.825-47.859,4.44-47.143,8.023c0.717,3.584,42.286-2.866,69.343,29.929    c28.865,34.988,109.121,58.229,116.561-47.974c5.606-2.207,10.516-5.129,14.607-8.709    C550.01,384.353,530.612,421.805,528.521,428.719z M450.145,371.499c12.353-2.187,25.165-2.812,37.035,0.138    c9.604,2.386,38.223,45.446,3.709,55.924c-47.783,14.506-70.606-36.04-97.842-40.341c6.08-0.579,41.287-12.134,74.734,12.712    C465.87,383.687,440.562,373.195,450.145,371.499z M561.262,331.702c0.387-4.358-0.501-39.807-19.26-47.503    c-23.09-9.474-29.713-29.138-42.46-34.213c-25.21-10.035-55.336,3.592-64.824,8.501c-14.181-2.078-40.09,1.55-52.202,3.502    c-7.443-9.599-25.619-30.299-43.939-30.299c-3.26,0-10.744-12.08-11.452-13.246c3.192-0.282,27.937-3.955,29.188-27.218    c5.009,0.908,22.4-1.106,29.48-12.595c3.02,2.051,17.288,7.906,30.369,0.336c0.863,0.258,17.021,14.02,39.025,7.263    c1.362,3.412,5.948,18.941,31.139,19.272c2.325,15.3,15.831,23.609,25.355,26.649c3.517,3.596,11.691,11.128,22.65,15.999    c15.601,6.934,31.877-10.671,31.877-10.671c4.337,19.37,6.641,39.499,6.641,60.158c0,22.928-2.835,45.203-8.144,66.51    C565.668,349.696,563.563,338.854,561.262,331.702z M395.914,355.058c0-54.562-62.132-67.224-77.286-25.609    S395.914,378.093,395.914,355.058z M354.284,335.731c-2.18-5.946,0.573-12.424,6.147-14.467c5.575-2.043,11.861,1.121,14.041,7.068    c2.179,5.946-0.573,12.423-6.148,14.466C362.749,344.843,356.463,341.678,354.284,335.731z M504.697,342.151    c-2.122,1.12-24.854-7.029-19.91-10.119C496.255,324.865,509.58,339.591,504.697,342.151z M531.715,318.729    c7.544,0.402-2.471,18.593-6.967,15.402C522.787,332.748,525.895,318.418,531.715,318.729z M142.535,307.102    c1.899-4.973,12.416-21.062,20.364-18.948c9.397,2.5,3.273,10.821,3.559,17.856C167.628,334.822,132.597,333.123,142.535,307.102z     M179.622,340.592c-2.925,1.514-6.445,1.584-10.036-1.024c-10.416-7.566,1.462-22.433,11.738-18.425    c8.736,1.889,6.286,13.639-0.131,18.448c3.122-1.785,6.446-2.658,9.802-2.247c17.174,2.104,10.395,59.434-14.654,53.909    C153.969,386.318,163.551,351.594,179.622,340.592z M236.827,304.588c-4.513,17.223-14.061,23.315-32.712,19.355    c-38.672-8.211,8.083-57.043,29.458-49.892C246.095,278.24,239.463,294.526,236.827,304.588z M267.156,261.908    c1.039-21.164,38.096-15.432,40.809,2.307C312.082,291.142,266.194,281.498,267.156,261.908z M174.298,248.367    c6.282-5.003,21.805-9.176,28.6-3.237c10.965,9.583-2.398,22.327-8.759,29.647C176.855,294.668,153.843,264.659,174.298,248.367z     M271.084,216.641c4.513,15.309-53.076,26.385-48.308-1.728C226.325,193.989,265.745,198.529,271.084,216.641z M135.578,255.741    c-6.412-5.638-1.444-19.171,2.349-24.05c15.765-20.275,41.181-11.252,21.358,12.227    C154.869,249.149,143.736,262.913,135.578,255.741z M214.708,248.609c-10.238-13.155,13.778-27.179,17.472-12.402    C243.271,242.044,223.593,260.024,214.708,248.609z M204.554,219.873c5.62,5.484,2.102,13.064-6.347,15.181    C178.304,240.039,188.885,204.583,204.554,219.873z M250.477,271.144c6.447-8.346,19.504,0.178,15.442,9.449    C261.105,291.577,242.32,281.701,250.477,271.144z M223.277,401.438c8.263,8.262,20.671,43.462-3.248,35.519    C200.58,430.497,211.318,389.482,223.277,401.438z M136.717,347.087c21.063-22.369,14.145,10.928,7.927,24.147    C138.402,384.504,123.147,361.498,136.717,347.087z M131.182,285.55c0.531-9.357,14.054-27.886,22.37-15.903    C162.673,282.792,130.079,304.981,131.182,285.55z M108.347,277.862c1.567,8.669-4.824,29.985-16.055,15.672    C84.139,283.144,106.669,268.587,108.347,277.862z M76.654,287.037c-8.817-4.356-0.808-18.177,7.578-15.463    C95.376,275.181,85.865,291.589,76.654,287.037z M127.293,243.115c1.792,2.986-2.261,16.247-3.715,19.171    c-6.52,13.114-16.934-3.088-14.563-11.654C111.426,241.927,121.627,233.673,127.293,243.115z M158.581,382.064    c-0.929,6.494-1.082,32.282-15.292,15.965C130.73,383.609,160.577,368.104,158.581,382.064z M190.957,423.948    c-19.004,20.69-36.005-0.518-17.625-17.987C188.816,391.244,206.229,407.32,190.957,423.948z M309.882,413.596    c-18.658,7.37-24.463-35.157-3.645-35.157C319.561,378.438,320.044,409.581,309.882,413.596z M280.302,436.39    c-5.878-8.218-3.912-32.264,11.213-20.082C307.336,429.051,294.082,455.656,280.302,436.39z M414.081,281.08    c20.175-2.397,35.978,30.457,10.987,30.873C410.104,312.202,391.283,283.789,414.081,281.08z M443.261,275.4    c9.218-8.964,30.082,3.701,18.36,15.071C450.779,300.989,431.619,286.721,443.261,275.4z M414.535,338.085    c-11.421-6.36-3.418-21.007,8.212-18.701C437.031,322.934,427.465,345.286,414.535,338.085z M467.005,304.901    c10.609,9.005-0.71,27.24-12.214,16.658C445.797,313.286,455.507,295.143,467.005,304.901z M385.012,306.993    c-6.13-6.915-1.813-17.021,6.24-12.551c1.588,0.881,2.784,1.152,4.45,1.69C408.59,300.296,395.343,318.648,385.012,306.993z     M474.328,288.941c3.072-4.164,11.578-2.108,15.733,0.357c9.641,5.719,5.333,21.029-6.063,20.036    C477.047,308.729,470.023,294.774,474.328,288.941z M193.415,459.963c-8.626-11.096,12.164-18.986,15.772-7.833    C212.085,461.083,198.517,466.525,193.415,459.963z M203.158,506.152c6.618,6.619,0.12,22.997-9.613,16.358    C185.316,516.898,194.293,497.288,203.158,506.152z M226.816,494.572c-17.202,13.899-24.534-9.377-11.801-21.178    C221.376,455.766,244.49,480.292,226.816,494.572z M223.005,443.201c8.892,0.031,11.069,17.974,0.693,18.006    C213.208,462.381,212.396,443.164,223.005,443.201z M336.818,117.344c-23.298,22.218-39.969-35.791-29.938-44.727    C328.218,53.611,356.188,98.872,336.818,117.344z M262.579,85.615c3.688-9.17,24.748-7.075,26.563,3.32    C292.63,108.895,257.511,98.215,262.579,85.615z M221.533,74.285c-10.813,1.679-7.507-10.771-2.605-14.399    c4.738-3.506,17.96-2.531,22.639,0.612C263.966,75.546,232.485,77.287,221.533,74.285z M270.313,108.842    c5.612,6.849,12.832,23.617-0.704,26.119c-8.972,1.657-19.875-13.588-24.18-19.714C230.263,101.205,258.913,94.93,270.313,108.842z     M221.103,137.879c16.186-23.097,68.523,16.792,43.516,28.991C256.019,171.064,211.148,152.084,221.103,137.879z M213.188,173.877    c15.917-0.25,18.249,25.744,2.802,20.32C204.042,190.001,197.971,174.116,213.188,173.877z M310.168,40.621    c-4.586-7.753-15.092-18.203,2.918-17.191c8.813,0.496,18.697,11.975,19.533,20.366c1.239,12.458-9.621,19.613-18.532,10.067    C310.545,50.068,312.677,44.863,310.168,40.621z M358.163,60.596c10.004-18.107,27.938,9.293,23.815,23.493    C375.699,105.714,352.423,70.987,358.163,60.596z M409.803,80.889c11.879-1.588,21.824,44.642,0.473,41.755    C396.389,120.766,400.453,82.14,409.803,80.889z M452.83,121.928c16.047-8.276,15.033,20.234,6.013,27.598    C442.088,163.201,440.06,128.514,452.83,121.928z M454.049,97.213c16.293-8.196,17.439,14.49,4.457,15.838    C448.827,114.056,444.503,102.013,454.049,97.213z M484.178,153.148c2.721-6.188,6.23-15.33,15.083-10.154    c8.22,4.806,0.976,18.865-1.022,24.879C493.042,183.521,477.997,167.209,484.178,153.148z M527.446,173.517    c9.158,4.838-1.561,25.928-11.22,20.329C506.984,188.487,517.432,168.226,527.446,173.517z M248.564,462.856    c-10.544-3.841-15.777-31.648,1.508-28.468C267.643,437.623,266.69,469.459,248.564,462.856z M246.835,482.017    c-9.636-0.001-9.294-15.532,0-15.532C256.627,466.484,255.844,482.018,246.835,482.017z">
        </path>
      </svg>